<svg id="Capa_1" data-name="Capa 1" xmlns="http://www.w3.org/2000/svg" viewBox="0 0 377.91 377.91">
  <defs>
    <style>
      .cls-1 {
        fill: #262626;
      }

      .cls-2 {
        fill: #fff;
      }
    </style>
  </defs>
  <title>cover</title>
  <rect class="cls-1" width="377.91" height="377.91" />
  <path class="cls-2" d="M227.83,108.17c0.12,23.41-20.73,41.94-43.66,38.68-2.07-.29-2.42.81-3.06,2l-35.88,68.35c-1.89,3.6-2.19,3.67-5.56,1.32a60.86,60.86,0,0,0-13.94-7.27c-3-1.11-3.25-1.76-1.7-4.71q17.86-34.07,35.77-68.1c1.07-2,1.21-3.29-.46-5.24A38.84,38.84,0,1,1,227.83,108.17Zm-63.65.1a23.4,23.4,0,0,0,2.68,11.31,2.62,2.62,0,0,0,4.76-2.18c-0.19-.5-0.44-1-0.65-1.46a19.59,19.59,0,0,1,17-27.22c2-.11,3.73-0.63,3.58-2.94-0.14-2.13-1.84-2.6-3.74-2.41-0.44,0-.89,0-1.33.07A25,25,0,0,0,164.18,108.28Z" />
  <path class="cls-2" d="M312.43,269.66c-0.06,20.21-15.82,37.38-35.57,38.75-20.64,1.43-38.85-12.94-41.66-33.1a37.91,37.91,0,0,1,9.08-31.1c1.35-1.57,1.35-2.59.43-4.33q-18-34-35.81-68.08c-1.9-3.62-1.77-4,1.95-5.4a62.17,62.17,0,0,0,13.65-7.24c3-2.14,3.55-2,5.24,1.2q17.88,34.05,35.71,68.14c1.06,2,2,2.62,4.38,2.38A38.73,38.73,0,0,1,312.43,269.66Zm-63.64-.11a24.23,24.23,0,0,0,2.7,11.31,2.5,2.5,0,0,0,3.6,1.24,2.42,2.42,0,0,0,1.18-3.4c-0.21-.49-0.44-1-0.65-1.46a19.56,19.56,0,0,1,17-27.23c2-.12,3.75-0.63,3.61-2.93-0.13-2.13-1.83-2.47-3.74-2.43C259.56,245,249,256.07,248.79,269.55Z" />
  <path class="cls-2" d="M176.32,281.53c-10.72,0-21.43.06-32.15-.05-2.09,0-3.05.54-3.85,2.56-6.36,16.16-23.19,26.31-40,24.32a39,39,0,0,1-5.91-76.45A38.78,38.78,0,0,1,140.27,255c0.84,2.13,1.86,2.68,4,2.68,21.34-.08,42.69,0,64,0,4,0,4.29.34,3.84,4.25a65.57,65.57,0,0,0,0,15.5c0.45,3.7.11,4.14-3.71,4.14H176.32ZM79.54,270.13a23.4,23.4,0,0,0,2.4,10.25C82.73,282.1,84,283,85.8,282.1s1.76-2.31,1-3.89c-0.24-.48-0.44-1-0.64-1.47-4.76-12.06,3.72-25.86,16.42-26.7,2-.13,4.13-0.14,4.31-2.83,0.13-1.89-1.62-2.74-4.72-2.5l-0.53,0C88.94,246.3,79.65,256.73,79.54,270.13Z" />
</svg>